# xmcd
#
# Track frame offsets:
#	150
#	6690
#	45562
#	67021
#	145148
#	149285
#	210409
#
# Disc length: 3115 seconds
#
# Revision: 0
# Processed by: cddbd v1.4PL0 Copyright (c) Steve Scherf et al.
# Submitted via: dBpowerAMP V4.0
#
DISCID=680c2907
DTITLE=Grateful Dead - Barton Hall - May 8th 1977 - CD 3
DYEAR=1900
DGENRE=Blues
TTITLE0=Tune Up
TTITLE1=Estimated Prophet
TTITLE2=Saint Stephen
TTITLE3=Not Fade Away
TTITLE4=Saint Stephen
TTITLE5=Morning Dew
TTITLE6=One More Saturday Night
EXTD=
EXTT0=
EXTT1=
EXTT2=
EXTT3=
EXTT4=
EXTT5=
EXTT6=
PLAYORDER=
